<?xml version="1.0" encoding="UTF-8"?>
<svg xmlns="http://www.w3.org/2000/svg" xmlns:xlink="http://www.w3.org/1999/xlink" viewBox="0 0 150 150" width="150px" height="150px">
<g id="surface211472342">
<path style=" stroke:none;fill-rule:nonzero;fill:rgb(100%,100%,100%);fill-opacity:1;" d="M 24 9.027344 C 13.589844 9.027344 6.027344 15.269531 6.027344 23.847656 C 6.027344 32.457031 13.769531 38.96875 24 38.96875 C 34.410156 38.96875 41.96875 32.613281 41.96875 23.671875 C 41.492188 15.0625 34.078125 9.027344 24 9.027344 Z M 9 45 C 7.351562 45 6 46.351562 6 48 L 6 135 C 6 136.648438 7.351562 138 9 138 L 39 138 C 40.648438 138 42 136.648438 42 135 L 42 48 C 42 46.351562 40.648438 45 39 45 Z M 54 45 C 52.351562 45 51 46.351562 51 48 L 51 135 C 51 136.648438 52.351562 138 54 138 L 81 138 C 82.65625 138 84 136.65625 84 135 L 84 88.5 C 84 81.390625 89.460938 75.597656 96.421875 75.058594 C 96.78125 75 97.140625 75 97.5 75 C 97.859375 75 98.21875 75 98.578125 75.058594 C 105.539062 75.597656 111 81.390625 111 88.5 L 111 135 C 111 136.65625 112.34375 138 114 138 L 141 138 C 142.648438 138 144 136.648438 144 135 L 144 84 C 144 64.589844 133.585938 45 110.367188 45 C 99.808594 45 91.828125 49.082031 87 52.46875 L 87 48 C 87 46.351562 85.648438 45 84 45 Z M 54 45 "/>
</g>
</svg>
