<?xml version="1.0" encoding="UTF-8"?>
<svg xmlns="http://www.w3.org/2000/svg" xmlns:xlink="http://www.w3.org/1999/xlink" viewBox="0 0 120 120" width="120px" height="120px">
<g id="surface211455934">
<path style=" stroke:none;fill-rule:nonzero;fill:rgb(100%,100%,100%);fill-opacity:1;" d="M 60 12 C 33.492188 12 12 33.492188 12 60 C 12 86.507812 33.492188 108 60 108 C 86.507812 108 108 86.507812 108 60 C 108 33.492188 86.507812 12 60 12 Z M 41.984375 33.613281 C 45.351562 33.613281 47.597656 35.855469 47.597656 38.847656 C 47.597656 41.839844 45.351562 44.085938 41.613281 44.085938 C 38.242188 44.089844 36 41.839844 36 38.847656 C 36 35.855469 38.242188 33.613281 41.984375 33.613281 Z M 48 80 L 36 80 L 36 48 L 48 48 Z M 88 80 L 76.703125 80 L 76.703125 62.511719 C 76.703125 57.675781 73.691406 56.558594 72.5625 56.558594 C 71.4375 56.558594 67.667969 57.304688 67.667969 62.511719 C 67.667969 63.257812 67.667969 80 67.667969 80 L 56 80 L 56 48 L 67.671875 48 L 67.671875 52.464844 C 69.175781 49.859375 72.1875 48 77.835938 48 C 83.484375 48 88 52.464844 88 62.511719 Z M 88 80 "/>
</g>
</svg>
