<?xml version="1.0" encoding="UTF-8"?>
<svg xmlns="http://www.w3.org/2000/svg" xmlns:xlink="http://www.w3.org/1999/xlink" viewBox="0 0 120 120" width="120px" height="120px">
<g id="surface211368797">
<path style=" stroke:none;fill-rule:nonzero;fill:rgb(100%,100%,100%);fill-opacity:1;" d="M 60 12 C 33.492188 12 12 33.492188 12 60 C 12 82.492188 27.488281 101.3125 48.367188 106.519531 C 48.144531 105.871094 48 105.121094 48 104.1875 L 48 95.984375 C 46.050781 95.984375 42.789062 95.984375 41.96875 95.984375 C 38.683594 95.984375 35.765625 94.570312 34.347656 91.949219 C 32.777344 89.03125 32.503906 84.570312 28.609375 81.84375 C 27.453125 80.9375 28.332031 79.898438 29.664062 80.039062 C 32.125 80.734375 34.164062 82.425781 36.085938 84.929688 C 37.996094 87.4375 38.894531 88.003906 42.46875 88.003906 C 44.199219 88.003906 46.792969 87.902344 49.230469 87.519531 C 50.542969 84.1875 52.8125 81.121094 55.585938 79.671875 C 39.601562 78.027344 31.972656 70.074219 31.972656 59.28125 C 31.972656 54.632812 33.953125 50.136719 37.316406 46.347656 C 36.210938 42.589844 34.824219 34.921875 37.738281 32 C 44.933594 32 49.28125 36.664062 50.324219 37.925781 C 53.90625 36.695312 57.84375 36 61.980469 36 C 66.125 36 70.074219 36.695312 73.667969 37.933594 C 74.699219 36.679688 79.050781 32 86.261719 32 C 89.1875 34.925781 87.785156 42.625 86.667969 46.375 C 90.011719 50.15625 91.980469 54.640625 91.980469 59.28125 C 91.980469 70.066406 84.363281 78.015625 68.402344 79.667969 C 72.796875 81.960938 76 88.398438 76 93.253906 L 76 104.1875 C 76 104.605469 75.90625 104.902344 75.859375 105.261719 C 94.5625 98.703125 108 80.945312 108 60 C 108 33.492188 86.507812 12 60 12 Z M 60 12 "/>
</g>
</svg>
