<?xml version="1.0" encoding="UTF-8"?>
<svg xmlns="http://www.w3.org/2000/svg" xmlns:xlink="http://www.w3.org/1999/xlink" viewBox="0 0 120 120" width="120px" height="120px">
<g id="surface211671475">
<path style=" stroke:none;fill-rule:nonzero;fill:rgb(100%,100%,100%);fill-opacity:1;" d="M 112 27.746094 C 108.171875 29.449219 104.058594 30.59375 99.742188 31.109375 C 104.152344 28.46875 107.53125 24.289062 109.125 19.304688 C 105.003906 21.746094 100.4375 23.523438 95.570312 24.484375 C 91.679688 20.335938 86.136719 17.742188 80 17.742188 C 68.214844 17.742188 58.664062 27.300781 58.664062 39.078125 C 58.664062 40.753906 58.855469 42.382812 59.214844 43.941406 C 41.484375 43.050781 25.765625 34.554688 15.234375 21.644531 C 13.402344 24.796875 12.351562 28.460938 12.351562 32.375 C 12.351562 39.777344 16.117188 46.308594 21.839844 50.132812 C 18.34375 50.019531 15.050781 49.058594 12.175781 47.464844 C 12.175781 47.554688 12.175781 47.640625 12.175781 47.730469 C 12.175781 58.070312 19.527344 66.695312 29.292969 68.652344 C 27.503906 69.140625 25.617188 69.398438 23.667969 69.398438 C 22.296875 69.398438 20.957031 69.265625 19.65625 69.019531 C 22.371094 77.496094 30.253906 83.667969 39.589844 83.839844 C 32.289062 89.5625 23.089844 92.976562 13.089844 92.976562 C 11.367188 92.976562 9.667969 92.875 7.996094 92.675781 C 17.441406 98.726562 28.652344 102.261719 40.703125 102.261719 C 79.953125 102.261719 101.40625 69.746094 101.40625 41.550781 C 101.40625 40.628906 101.386719 39.707031 101.347656 38.792969 C 105.519531 35.78125 109.140625 32.023438 112 27.746094 Z M 112 27.746094 "/>
</g>
</svg>
